<svg xmlns="http://www.w3.org/2000/svg" viewBox="0 0 1200 630">
  <defs>
    <linearGradient id="bg" x1="0" y1="0" x2="1" y2="1">
      <stop offset="0" stop-color="#000814"/>
      <stop offset="0.5" stop-color="#06122a"/>
      <stop offset="1" stop-color="#000814"/>
    </linearGradient>
    <radialGradient id="planet" cx="50%" cy="40%" r="60%">
      <stop offset="0" stop-color="#5ae0e0"/>
      <stop offset="0.4" stop-color="#4a6cff"/>
      <stop offset="1" stop-color="#0a1430"/>
    </radialGradient>
    <radialGradient id="halo" cx="50%" cy="50%" r="50%">
      <stop offset="0" stop-color="rgba(70,120,255,0.55)"/>
      <stop offset="0.5" stop-color="rgba(40,80,200,0.18)"/>
      <stop offset="1" stop-color="rgba(0,0,0,0)"/>
    </radialGradient>
  </defs>
  <rect width="1200" height="630" fill="url(#bg)"/>
  <g fill="#fff" opacity="0.7">
    <circle cx="60" cy="80" r="1.4"/><circle cx="180" cy="50" r="1"/>
    <circle cx="320" cy="120" r="1.5"/><circle cx="500" cy="60" r="1"/>
    <circle cx="700" cy="100" r="1.2"/><circle cx="900" cy="40" r="1.6"/>
    <circle cx="1080" cy="120" r="1"/><circle cx="120" cy="220" r="1"/>
    <circle cx="260" cy="320" r="1.3"/><circle cx="420" cy="240" r="1"/>
    <circle cx="80" cy="420" r="1.4"/><circle cx="280" cy="500" r="1"/>
    <circle cx="460" cy="560" r="1.5"/><circle cx="600" cy="500" r="1"/>
    <circle cx="80" cy="560" r="1"/><circle cx="200" cy="600" r="1.4"/>
    <circle cx="1120" cy="280" r="1"/><circle cx="1080" cy="500" r="1.4"/>
    <circle cx="950" cy="580" r="1"/><circle cx="780" cy="540" r="1.3"/>
  </g>
  <circle cx="940" cy="345" r="320" fill="url(#halo)"/>
  <circle cx="940" cy="345" r="220" fill="url(#planet)"/>
  <g fill="none" stroke="rgba(150,180,255,0.4)" stroke-width="1.4">
    <ellipse cx="940" cy="345" rx="220" ry="80"/>
    <ellipse cx="940" cy="345" rx="220" ry="140"/>
    <ellipse cx="940" cy="345" rx="220" ry="200"/>
    <ellipse cx="940" cy="345" rx="100" ry="220"/>
    <ellipse cx="940" cy="345" rx="180" ry="220"/>
  </g>
  <circle cx="940" cy="345" r="220" fill="none" stroke="rgba(127,178,255,0.7)" stroke-width="1.4"/>
  <circle cx="900" cy="270" r="28" fill="rgba(255,209,102,0.35)"/>
  <circle cx="900" cy="270" r="8"  fill="#ffd166"/>
  <circle cx="1010" cy="380" r="22" fill="rgba(255,107,154,0.3)"/>
  <circle cx="1010" cy="380" r="6"  fill="#ff6b9a"/>
  <circle cx="850" cy="410" r="20" fill="rgba(122,166,255,0.3)"/>
  <circle cx="850" cy="410" r="6"  fill="#7aa6ff"/>
  <g font-family="Inter, sans-serif" fill="#5ae0e0">
    <circle cx="74" cy="88" r="6" fill="#5ae0e0"/>
    <text x="92" y="96" font-size="22" font-weight="700" letter-spacing="6">PULSE EARTH</text>
  </g>
  <g font-family="Zen Kaku Gothic New, sans-serif" fill="#eef1ff">
    <text x="60" y="240" font-size="74" font-weight="900">世界の今、</text>
    <text x="60" y="330" font-size="74" font-weight="900">地球が脈打つ。</text>
  </g>
  <text x="60" y="400" font-family="Zen Kaku Gothic New, sans-serif" font-size="26" fill="#b6baca">
    今この瞬間、世界中の誰かの感情が地球に灯る。
  </text>
  <text x="60" y="436" font-family="Zen Kaku Gothic New, sans-serif" font-size="26" fill="#b6baca">
    あなたの気持ちが、見知らぬ誰かの今と共鳴する。
  </text>
  <text x="60" y="540" font-family="Inter, sans-serif" font-size="20" font-weight="600" fill="#7a7f93">
    Free · No sign up · Real time
  </text>
  <text x="60" y="580" font-family="Inter, sans-serif" font-size="22" font-weight="700" fill="#5ae0e0">
    guttyanneruuuuuu.github.io/service10
  </text>
</svg>
